<svg id="Layer_1" data-name="Layer 1" xmlns="http://www.w3.org/2000/svg" viewBox="0 0 388.6 307.22"><path d="M82.84,76.06a346.66,346.66,0,0,0,6.07,87.27q2.43,12.24,5.75,24.27a1.5,1.5,0,0,0,2.89-.8A342.86,342.86,0,0,1,85.3,100.52q-.17-12.24.54-24.46c.11-1.93-2.89-1.92-3,0Z" transform="translate(-75.03 -48.57)"/><path d="M76.89,138.33A520.11,520.11,0,0,1,141,126.25q9.17-1.12,18.37-1.94c1.91-.17,1.93-3.17,0-3a526.57,526.57,0,0,0-65,9.84q-9.15,2-18.22,4.29c-1.87.48-1.07,3.37.8,2.89Z" transform="translate(-75.03 -48.57)"/><path d="M160.55,52.08c1.74,29.68-5.45,58.9-5.82,88.5a147.91,147.91,0,0,0,1.67,24.7c.3,1.9,3.2,1.09,2.9-.8-4.59-29.12,2-58.39,4-87.43a196.29,196.29,0,0,0,.29-25c-.12-1.92-3.12-1.93-3,0Z" transform="translate(-75.03 -48.57)"/><path d="M260.61,70.68c-2.27-4-6.56-6.14-11-6.57-5.27-.51-10.48,1.54-15.09,3.87a60.1,60.1,0,0,0-28.58,75.56c3.36,8.27,9.23,16.33,18.29,18.68,10,2.59,20.36-2.12,28.6-7.48,15.43-10,28.16-25.38,32.31-43.59,3.84-16.88-.48-36.07-12.83-48.54a44.33,44.33,0,0,0-4.92-4.26c-1.54-1.16-3,1.44-1.51,2.59,13.1,9.9,18.9,27.17,17.37,43.17-1.63,17.12-12,32.39-25.06,43-7,5.71-15.41,11.09-24.49,12.51a20.2,20.2,0,0,1-13.15-2.15,25,25,0,0,1-8.63-8.72c-4.95-7.94-7.11-17.69-7.17-27a56.72,56.72,0,0,1,6.82-27.49,57.78,57.78,0,0,1,16.8-19.09,52.27,52.27,0,0,1,11.74-6.52c4.28-1.64,9.24-2.56,13.55-.49a9.79,9.79,0,0,1,4.37,4,1.5,1.5,0,0,0,2.59-1.51Z" transform="translate(-75.03 -48.57)"/><path d="M306.15,50c.88,20.57-6.52,40.11-13.42,59.13-1.78,4.91-3.55,9.82-5.17,14.79q-1.19,3.58-2.24,7.22c-.68,2.35-1.55,5-.76,7.39,1.28,3.93,5.63,5.23,9.32,5.75,5.41.75,10.88,1.23,16.33,1.59a264.58,264.58,0,0,0,38.19-.25c1.91-.15,1.92-3.15,0-3a264.15,264.15,0,0,1-32.81.55q-8.07-.36-16.12-1.23a56.54,56.54,0,0,1-7.11-1c-1.6-.37-3.45-1-4.46-2.36-1.38-1.94-.28-4.63.31-6.66q1.05-3.63,2.24-7.23c1.53-4.68,3.19-9.31,4.87-13.94,3.39-9.37,6.88-18.71,9.53-28.32,2.92-10.55,4.77-21.47,4.3-32.45-.08-1.92-3.08-1.93-3,0Z" transform="translate(-75.03 -48.57)"/><path d="M359.58,139.84a412.14,412.14,0,0,1,36.77-66.72q2.7-4,5.48-7.88c.87-1.21,1.7-2.47,2.63-3.63,1.08-1.36,2.12-1.5,3.56-.5a30.47,30.47,0,0,1,6.3,6.67c1.87,2.48,3.56,5.11,5.25,7.71q11,16.86,21.34,34.09,5.88,9.75,11.54,19.63,2.78,4.83,5.5,9.69a23.55,23.55,0,0,1,2.51,4.89,2.35,2.35,0,0,1-.16,2.07c-.23.32-.7.72-1.11.51-1.72-.87-3.24,1.71-1.51,2.59a4.18,4.18,0,0,0,5.84-3.12c.68-3.26-2-6.63-3.45-9.3q-5.34-9.49-10.87-18.9-11.06-18.8-22.83-37.15c-3.71-5.79-7.27-11.85-11.74-17.09-1.88-2.2-4.34-5.17-7.28-5.9-3.45-.86-5.33,2.37-7,4.75A410.08,410.08,0,0,0,357,138.33c-.76,1.75,1.82,3.28,2.59,1.51Z" transform="translate(-75.03 -48.57)"/><path d="M339,113.35q44.75,4.09,89.24,10.41,12.53,1.78,25,3.74c1.89.29,2.7-2.6.8-2.89q-44.67-7-89.64-11.75-12.7-1.35-25.42-2.51c-1.92-.18-1.91,2.83,0,3Z" transform="translate(-75.03 -48.57)"/><path d="M156.87,258.54a135.27,135.27,0,0,0-34.17,9.92q-4.07,1.79-8,3.84c-2,1.06-4.4,2.46-4.93,4.87a2.57,2.57,0,0,0,1.08,3,38.63,38.63,0,0,0,3.48,1.85,73.6,73.6,0,0,0,7.3,3c9.63,3.43,20,5.34,28.81,10.76,4.11,2.54,8.51,6.25,9.38,11.29s-3.2,8-7.4,9.41a55.77,55.77,0,0,1-8.39,1.83c-3.47.58-6.95,1.06-10.46,1.34a65.15,65.15,0,0,1-20.7-1.31c-1.88-.46-2.68,2.44-.8,2.89,8.91,2.18,18.13,2,27.18.81a98.14,98.14,0,0,0,12.27-2.16c3.16-.84,6.47-2.16,8.72-4.64,5.49-6.05,1.5-14.3-3.86-18.87-5.72-4.88-13-7.61-20.09-9.86-8.24-2.62-16.76-4.69-24.27-9.13l.69.9c-.33-1.52,2-2.64,3.1-3.2,1.88-1,3.79-1.93,5.71-2.83q5.72-2.65,11.66-4.75a133.09,133.09,0,0,1,24.49-6.08c1.9-.29,1.09-3.18-.8-2.9Z" transform="translate(-75.03 -48.57)"/><path d="M167.22,249.45c3.28,22.12,14.91,41.75,27.95,59.49,3.32,4.53,6.76,9,10.24,13.38l2.37,3a23.31,23.31,0,0,0,2.58,3.1,3,3,0,0,0,3.35.58,5.64,5.64,0,0,0,2.17-2.9l16.92-35.26,19.07-39.75c.84-1.74-1.75-3.26-2.59-1.52Q233.13,283.27,217,317c-1.36,2.84-2.67,5.72-4.09,8.54a2.73,2.73,0,0,1-.31.58c-.39.34.08.22-.21.09s-.83-.95-1.12-1.31l-2.64-3.32c-3.32-4.2-6.61-8.43-9.8-12.73A208,208,0,0,1,181.49,282a104.69,104.69,0,0,1-11.38-33.36c-.28-1.91-3.17-1.1-2.89.79Z" transform="translate(-75.03 -48.57)"/><path d="M351,258a158.6,158.6,0,0,0-55.36,13,156.37,156.37,0,0,0-25.06,13.75c-3.9,2.63-7.69,5.44-11.32,8.42s-6.93,6.14-9.14,10.18c-4.57,8.36-2.12,18.3,3.46,25.52a49.42,49.42,0,0,0,10.3,9.6,112.35,112.35,0,0,0,12.32,7.76c8.65,4.72,18,8.29,27.9,9.26,7.88.77,18.31.3,24-6.09,6.6-7.41,1.71-17.24-3.78-23.62a87.67,87.67,0,0,0-21.77-18c-2.07-1.22-4.2-2.35-6.36-3.41l-.76,2.8,72.68,2.16,20.41.6c1.93.06,1.93-2.94,0-3l-72.68-2.16-20.41-.6a1.51,1.51,0,0,0-.76,2.79,87.91,87.91,0,0,1,22,15.16,52.38,52.38,0,0,1,8.78,10.14c2.14,3.47,3.76,7.71,2.44,11.78-2.5,7.66-12.88,8.79-19.64,8.68-9.26-.15-18.29-3-26.56-7a109.13,109.13,0,0,1-12.1-6.95A65.09,65.09,0,0,1,259,330.49c-6-6-10.4-14.93-7.27-23.42,1.48-4,4.52-7.25,7.66-10a116.9,116.9,0,0,1,10.46-8.11,155.56,155.56,0,0,1,74.62-27.5q3.27-.3,6.56-.46c1.92-.1,1.93-3.1,0-3Z" transform="translate(-75.03 -48.57)"/></svg>