<svg xmlns="http://www.w3.org/2000/svg" version="1.1" xmlns:xlink="http://www.w3.org/1999/xlink" xmlns:svgjs="http://svgjs.com/svgjs" width="70px" height="70px"><svg version="1.1" id="SvgjsSvg1000" xmlns="http://www.w3.org/2000/svg" xmlns:xlink="http://www.w3.org/1999/xlink" x="0px" y="0px" width="70px" height="70px" viewBox="0 0 99.34 99.339" style="enable-background:new 0 0 99.34 99.339;" xml:space="preserve" fill="#048A81">
                        <g>
                            <g>
                                <path d="M79.447,30.25c-0.701-0.058-1.346-0.416-1.764-0.982C73.637,23.784,67.135,20.4,60.213,20.4
			c-0.441,0-0.884,0.014-1.326,0.041c-0.582,0.035-1.153-0.138-1.619-0.489c-4.211-3.184-9.314-4.908-14.66-4.908
			c-9.572,0-18.068,5.554-22.026,13.96c-0.352,0.746-1.057,1.264-1.874,1.377C8.153,31.844,0,40.927,0,51.877
			c0,11.966,9.735,21.7,21.701,21.7h4.658v10.718h0.045H67.19l12.575-28.854c0.324-0.742,0.252-1.597-0.192-2.273
			c-0.442-0.678-1.199-1.086-2.009-1.086H64.335c-0.786,0-1.524,0.386-1.973,1.031l-3.112,4.484H42.311
			c-2.493,0-4.75,1.471-5.757,3.749l-4.851,10.968v-7.285H21.701c-7.252,0-13.151-5.899-13.151-13.15
			c0-7.252,5.899-13.152,13.151-13.152c0.366,0,0.726,0.029,1.085,0.059c2.089,0.163,3.982-1.193,4.49-3.221
			c1.769-7.047,8.073-11.97,15.331-11.97c4.146,0,8.071,1.603,11.05,4.51c1.019,0.993,2.464,1.417,3.858,1.127
			c0.887-0.187,1.793-0.28,2.697-0.28c5.077,0,9.611,2.855,11.832,7.45c0.781,1.616,2.488,2.576,4.274,2.393
			c0.444-0.044,0.888-0.067,1.319-0.067c7.252,0,13.151,5.9,13.151,13.152c0,6.312-4.472,11.596-10.414,12.858l-3.853,8.842h1.115
			c11.965,0,21.701-9.734,21.701-21.7C99.342,40.52,90.571,31.172,79.447,30.25z" fill="white"></path>
                                <path d="M57.969,42.055c1.771,0,3.207-1.436,3.207-3.206c0-1.771-1.437-3.207-3.207-3.207H41.372c-1.77,0-3.207,1.436-3.207,3.207
			s1.437,3.206,3.207,3.206H57.969z"></path>
                                <path d="M33.89,47.518c0,1.771,1.436,3.206,3.207,3.206h25.146c1.771,0,3.207-1.436,3.207-3.206c0-1.771-1.435-3.207-3.207-3.207
			H37.097C35.326,44.311,33.89,45.746,33.89,47.518z"></path>
                            </g>
                        </g>
                    </svg><style>@media (prefers-color-scheme: light) { :root { filter: contrast(1) brightness(0.1); } }
@media (prefers-color-scheme: dark) { :root { filter: contrast(0.3846153846153846) brightness(4.5); } }
</style></svg>